<svg width="64" height="64" viewBox="0 0 64 64" fill="none" xmlns="http://www.w3.org/2000/svg">
<rect x="0.886108" y="0.305786" width="63" height="62.7658" rx="10" fill="#FFD600"/>
<g clip-path="url(#clip0_14_3)">
<path d="M20.6674 20.0137V43.3641H44.1049V20.0137H20.6674ZM33.2838 21.5704L31.3306 23.1271H22.2299V21.5704H33.2838ZM42.5424 41.8074H22.2299V24.6838H31.8791L35.7853 21.5704H42.5424V41.8074Z" fill="#333845"/>
<path d="M36.2924 29.3539V38.694H34.7299V26.2405H30.0424V38.694H28.4799V33.2456H23.7924V38.694H23.0111V40.2507H41.7611V38.694H40.9799V29.3539H36.2924ZM25.3549 38.694V34.8023H26.9174V38.694H25.3549ZM31.6049 38.694V27.7972H33.1674V38.694H31.6049ZM37.8549 38.694V30.9106H39.4174V38.694H37.8549Z" fill="#333845"/>
</g>
<defs>
<clipPath id="clip0_14_3">
<rect width="25" height="24.9071" fill="white" transform="translate(19.8861 19.2354)"/>
</clipPath>
</defs>
</svg>
