<svg width="64" height="63" viewBox="0 0 64 63" fill="none" xmlns="http://www.w3.org/2000/svg">
<rect x="0.886108" y="0.0865479" width="63" height="62.7658" rx="10" fill="#FFD600"/>
<path d="M24.5111 30.5978H24.5899C25.2811 33.0387 27.1098 35.0088 29.4549 35.9154C29.4547 35.9154 29.455 35.9155 29.4549 35.9154C29.5087 36.8158 29.5112 37.7232 29.4458 38.6176C29.3364 40.1006 29.0783 40.7999 28.7528 41.6853C28.7244 41.7619 28.6943 41.8515 28.6654 41.9305H27.2156C26.7319 41.9305 26.3406 42.3209 26.3406 42.8023C26.3406 43.2836 26.7319 43.674 27.2156 43.674H29.2834H35.4888H37.5567C38.0403 43.674 38.4317 43.2836 38.4317 42.8023C38.4317 42.3209 38.0403 41.9305 37.5567 41.9305H36.1068C36.0779 41.8516 36.0478 41.7619 36.0195 41.6853C35.6939 40.7999 35.4358 40.1005 35.3265 38.618C35.261 37.7231 35.2631 36.8159 35.3169 35.9155C35.3167 35.9155 35.3171 35.9155 35.3169 35.9155C37.662 35.0089 39.4911 33.0387 40.1824 30.5978H40.2611C42.6761 30.5978 44.6361 28.6451 44.6361 26.2391V22.5167C44.6361 22.0285 44.2424 21.6449 43.7611 21.6449H40.4974V20.1368C40.4974 19.6574 40.1124 19.2651 39.6224 19.2651H25.1499C24.6599 19.2651 24.2749 19.6574 24.2749 20.1368V21.6449H21.0111C20.5299 21.6449 20.1361 22.0285 20.1361 22.5167V26.2391C20.1361 28.6451 22.0961 30.5978 24.5111 30.5978ZM33.5815 38.7453C33.6927 40.2521 33.9541 41.115 34.2471 41.9305H30.525C30.8181 41.115 31.0796 40.2521 31.1906 38.7449C31.2479 37.96 31.2484 37.1669 31.2213 36.3756C31.2246 36.376 31.2277 36.377 31.231 36.3775C31.6073 36.4385 31.9923 36.4646 32.386 36.4646C32.7798 36.4646 33.1648 36.4385 33.541 36.3775C33.5443 36.377 33.5474 36.376 33.5507 36.3756C33.5237 37.1669 33.5242 37.9602 33.5815 38.7453ZM42.8861 23.3884V26.2391C42.8861 27.599 41.8361 28.7235 40.4974 28.8456V28.3748V23.3884H42.8861ZM26.0249 21.0086H38.7474V22.5167V28.3748C38.7474 31.8705 35.8949 34.7212 32.3861 34.7212C28.8774 34.7212 26.0249 31.8705 26.0249 28.3748V22.5167V21.0086ZM21.8861 23.3884H24.2749V28.3748V28.8456C22.9361 28.7235 21.8861 27.599 21.8861 26.2391V23.3884Z" fill="#333845"/>
<path d="M32.3861 30.5978C34.0749 30.5978 35.4486 29.2291 35.4486 27.5467C35.4486 25.8642 34.0749 24.4955 32.3861 24.4955C30.6974 24.4955 29.3236 25.8642 29.3236 27.5467C29.3236 29.2291 30.6974 30.5978 32.3861 30.5978ZM32.3861 26.239C33.1124 26.239 33.6986 26.8231 33.6986 27.5467C33.6986 28.2702 33.1124 28.8543 32.3861 28.8543C31.6599 28.8543 31.0736 28.2702 31.0736 27.5467C31.0736 26.8231 31.6599 26.239 32.3861 26.239Z" fill="#333845"/>
</svg>
