<svg width="64" height="64" viewBox="0 0 64 64" fill="none" xmlns="http://www.w3.org/2000/svg">
<rect x="0.88623" y="0.305542" width="63" height="62.7658" rx="10" fill="#FFD600"/>
<path d="M32.8862 43.5576C32.6943 43.5576 32.5025 43.4846 32.356 43.3387L26.3293 37.3344C22.7137 33.7322 22.7137 27.8716 26.3293 24.2695C29.9445 20.6669 35.828 20.6669 39.4433 24.2695C43.0589 27.8716 43.0589 33.7322 39.4433 37.3344L33.4166 43.3387C33.27 43.4846 33.0782 43.5576 32.8862 43.5576ZM32.8862 23.0614C30.8959 23.0614 28.9052 23.8164 27.3898 25.3261C24.3594 28.3456 24.3594 33.2583 27.3898 36.2778L32.8862 41.7538L38.3827 36.2778C41.4131 33.2583 41.4131 28.3456 38.3827 25.3261C36.8673 23.8164 34.8766 23.0614 32.8862 23.0614Z" fill="#333845"/>
<path d="M32.8862 34.4849C30.8186 34.4849 29.1362 32.8087 29.1362 30.7488C29.1362 28.6889 30.8186 27.0128 32.8862 27.0128C34.9538 27.0128 36.6362 28.6889 36.6362 30.7488C36.6362 32.8087 34.9538 34.4849 32.8862 34.4849ZM32.8862 28.5072C31.6455 28.5072 30.6362 29.5127 30.6362 30.7488C30.6362 31.9849 31.6455 32.9905 32.8862 32.9905C34.127 32.9905 35.1362 31.9849 35.1362 30.7488C35.1362 29.5127 34.127 28.5072 32.8862 28.5072Z" fill="#333845"/>
</svg>
