<svg width="64" height="64" viewBox="0 0 64 64" fill="none" xmlns="http://www.w3.org/2000/svg">
<rect x="0.886108" y="0.305786" width="63" height="62.7658" rx="10" fill="#FFD600"/>
<g clip-path="url(#clip0_15_5)">
<path d="M40.9745 42.43H23.7978C23.2164 42.4292 22.6591 42.1988 22.248 41.7893C21.8369 41.3797 21.6056 40.8244 21.6049 40.2452V29.5807C21.6051 29.2329 21.6886 28.8902 21.8484 28.581C22.0081 28.2718 22.2395 28.005 22.5234 27.8027L31.1118 21.6909C31.4836 21.4264 31.9292 21.2842 32.3861 21.2842C32.8431 21.2842 33.2886 21.4264 33.6605 21.6909L42.2488 27.8027C42.5327 28.005 42.7641 28.2718 42.9239 28.581C43.0836 28.8902 43.1671 29.2329 43.1674 29.5807V40.2452C43.1666 40.8244 42.9353 41.3797 42.5242 41.7893C42.1131 42.1988 41.5558 42.4292 40.9745 42.43ZM32.3861 22.7164C32.2287 22.7163 32.0752 22.7651 31.947 22.856L23.3586 28.9677C23.2608 29.0374 23.1812 29.1293 23.1262 29.2357C23.0712 29.3422 23.0424 29.4602 23.0424 29.58V40.2452C23.0425 40.4448 23.1222 40.6361 23.2638 40.7772C23.4054 40.9183 23.5975 40.9976 23.7978 40.9978H40.9759C41.1759 40.9973 41.3676 40.9178 41.5089 40.7767C41.6502 40.6356 41.7297 40.4445 41.7299 40.2452V29.5807C41.7298 29.4609 41.7011 29.3429 41.6461 29.2365C41.5911 29.13 41.5114 29.0381 41.4136 28.9684L32.8253 22.8567C32.6972 22.7653 32.5436 22.7163 32.3861 22.7164Z" fill="#333845"/>
<path d="M35.9799 38.8496H28.7924C28.6017 38.8496 28.4189 38.7742 28.2841 38.6399C28.1493 38.5056 28.0736 38.3235 28.0736 38.1335V35.9853C28.0736 35.7954 28.1493 35.6133 28.2841 35.479C28.4189 35.3447 28.6017 35.2692 28.7924 35.2692C28.983 35.2692 29.1658 35.3447 29.3006 35.479C29.4354 35.6133 29.5111 35.7954 29.5111 35.9853V37.4175H35.2611V35.9853C35.2611 35.7954 35.3368 35.6133 35.4716 35.479C35.6064 35.3447 35.7892 35.2692 35.9799 35.2692C36.1705 35.2692 36.3533 35.3447 36.4881 35.479C36.6229 35.6133 36.6986 35.7954 36.6986 35.9853V38.1335C36.6986 38.3235 36.6229 38.5056 36.4881 38.6399C36.3533 38.7742 36.1705 38.8496 35.9799 38.8496Z" fill="#333845"/>
</g>
<defs>
<clipPath id="clip0_15_5">
<rect width="23" height="22.9145" fill="white" transform="translate(20.8861 20.2316)"/>
</clipPath>
</defs>
</svg>
