<svg width="64" height="63" viewBox="0 0 64 63" fill="none" xmlns="http://www.w3.org/2000/svg">
<rect x="0.886108" y="0.0865479" width="63" height="62.7658" rx="10" fill="#FFD600"/>
<path d="M32.3861 18.8291C25.3899 18.8291 19.6986 24.4992 19.6986 31.4694C19.6986 38.4397 25.3899 44.1098 32.3861 44.1098C39.3824 44.1098 45.0736 38.4397 45.0736 31.4694C45.0736 24.4992 39.3824 18.8291 32.3861 18.8291ZM32.3861 42.304C26.3867 42.304 21.5111 37.4465 21.5111 31.4694C21.5111 25.4924 26.3867 20.6349 32.3861 20.6349C38.3855 20.6349 43.2611 25.4924 43.2611 31.4694C43.2611 37.4465 38.3855 42.304 32.3861 42.304Z" fill="#333845"/>
<path d="M38.9292 29.14L34.9689 28.5712L33.2017 24.9958C32.8936 24.3818 31.8786 24.3818 31.5705 24.9958L29.8033 28.5712L25.843 29.14C25.5076 29.1942 25.2177 29.4289 25.118 29.754C25.0092 30.079 25.0999 30.4402 25.3446 30.6839L28.2083 33.4648L27.5286 37.3923C27.4742 37.7264 27.6102 38.0695 27.8911 38.2772C28.1721 38.4758 28.5436 38.5029 28.8427 38.3404L32.3861 36.4895L35.9296 38.3404C36.0564 38.4126 36.2014 38.4487 36.3464 38.4487C36.5367 38.4487 36.7271 38.3855 36.8811 38.2772C37.1621 38.0695 37.298 37.7264 37.2436 37.3923L36.5639 33.4648L39.4277 30.6839C39.6724 30.4402 39.763 30.079 39.6542 29.754C39.5546 29.4289 39.2646 29.1942 38.9292 29.14ZM34.9599 32.4987C34.7423 32.7064 34.6517 33.0043 34.6971 33.3023L35.1411 35.8936L32.803 34.6656C32.6761 34.6024 32.5311 34.5663 32.3861 34.5663C32.2411 34.5663 32.0961 34.6024 31.9692 34.6656L29.6311 35.8936L30.0752 33.3023C30.1205 33.0043 30.0299 32.7064 29.8124 32.4987L27.9274 30.6659L30.5374 30.2867C30.8274 30.2415 31.0902 30.0609 31.2171 29.7901L32.3861 27.4336L33.5552 29.7901C33.6821 30.0609 33.9449 30.2415 34.2349 30.2867L36.8449 30.6659L34.9599 32.4987Z" fill="#333845"/>
</svg>
