<svg width="64" height="63" viewBox="0 0 64 63" fill="none" xmlns="http://www.w3.org/2000/svg">
<rect x="0.88623" y="0.0865479" width="63" height="62.7658" rx="10" fill="#FFD600"/>
<g clip-path="url(#clip0_15_6)">
<path d="M39.9729 21.7402H36.9464C36.7795 21.1798 36.4357 20.6879 35.9661 20.3374C35.4966 19.9869 34.9261 19.7965 34.3394 19.7943H30.4331C29.8464 19.7965 29.2759 19.9869 28.8063 20.3374C28.3367 20.6879 27.993 21.1798 27.8261 21.7402H24.7995C24.3254 21.7408 23.8709 21.9287 23.5357 22.2627C23.2005 22.5967 23.0119 23.0495 23.0112 23.5218V41.3631C23.0119 41.8354 23.2005 42.2882 23.5357 42.6222C23.8709 42.9562 24.3254 43.1441 24.7995 43.1447H39.9729C40.447 43.1441 40.9015 42.9562 41.2368 42.6222C41.572 42.2882 41.7606 41.8354 41.7612 41.3631V23.5218C41.7606 23.0495 41.572 22.5967 41.2368 22.2627C40.9015 21.9287 40.447 21.7408 39.9729 21.7402ZM30.4331 21.351H34.3394C34.6502 21.351 34.9482 21.474 35.168 21.693C35.3878 21.9119 35.5112 22.2089 35.5112 22.5186C35.5112 22.8282 35.3878 23.1252 35.168 23.3441C34.9482 23.5631 34.6502 23.6861 34.3394 23.6861H30.4331C30.1223 23.6861 29.8242 23.5631 29.6045 23.3441C29.3847 23.1252 29.2612 22.8282 29.2612 22.5186C29.2612 22.2089 29.3847 21.9119 29.6045 21.693C29.8242 21.474 30.1223 21.351 30.4331 21.351ZM40.1987 41.3631C40.1985 41.4227 40.1747 41.4798 40.1324 41.5219C40.0901 41.5641 40.0328 41.5878 39.9729 41.588H24.7995C24.7397 41.5878 24.6824 41.5641 24.6401 41.5219C24.5978 41.4798 24.5739 41.4227 24.5737 41.3631V23.5218C24.5739 23.4622 24.5978 23.4051 24.6401 23.363C24.6824 23.3209 24.7397 23.2971 24.7995 23.2969H27.8261C27.993 23.8573 28.3367 24.3492 28.8063 24.6997C29.2759 25.0502 29.8464 25.2406 30.4331 25.2428H34.3394C34.9261 25.2406 35.4966 25.0502 35.9661 24.6997C36.4357 24.3492 36.7795 23.8573 36.9464 23.2969H39.9729C40.0328 23.2971 40.0901 23.3209 40.1324 23.363C40.1747 23.4051 40.1985 23.4622 40.1987 23.5218V41.3631Z" fill="#333845"/>
<path d="M37.0737 36.1396H27.6987C27.4915 36.1396 27.2928 36.2216 27.1463 36.3676C26.9998 36.5135 26.9175 36.7115 26.9175 36.9179C26.9175 37.1244 26.9998 37.3223 27.1463 37.4683C27.2928 37.6143 27.4915 37.6963 27.6987 37.6963H37.0737C37.2809 37.6963 37.4796 37.6143 37.6262 37.4683C37.7727 37.3223 37.855 37.1244 37.855 36.9179C37.855 36.7115 37.7727 36.5135 37.6262 36.3676C37.4796 36.2216 37.2809 36.1396 37.0737 36.1396Z" fill="#333845"/>
<path d="M37.0737 32.2479H27.6987C27.4915 32.2479 27.2928 32.3299 27.1463 32.4758C26.9998 32.6218 26.9175 32.8198 26.9175 33.0262C26.9175 33.2326 26.9998 33.4306 27.1463 33.5766C27.2928 33.7226 27.4915 33.8046 27.6987 33.8046H37.0737C37.2809 33.8046 37.4796 33.7226 37.6262 33.5766C37.7727 33.4306 37.855 33.2326 37.855 33.0262C37.855 32.8198 37.7727 32.6218 37.6262 32.4758C37.4796 32.3299 37.2809 32.2479 37.0737 32.2479Z" fill="#333845"/>
<path d="M37.0737 28.3561H27.6987C27.4915 28.3561 27.2928 28.4381 27.1463 28.5841C26.9998 28.7301 26.9175 28.9281 26.9175 29.1345C26.9175 29.3409 26.9998 29.5389 27.1463 29.6849C27.2928 29.8308 27.4915 29.9128 27.6987 29.9128H37.0737C37.2809 29.9128 37.4796 29.8308 37.6262 29.6849C37.7727 29.5389 37.855 29.3409 37.855 29.1345C37.855 28.9281 37.7727 28.7301 37.6262 28.5841C37.4796 28.4381 37.2809 28.3561 37.0737 28.3561Z" fill="#333845"/>
</g>
<defs>
<clipPath id="clip0_15_6">
<rect width="25" height="24.9071" fill="white" transform="translate(19.8862 19.016)"/>
</clipPath>
</defs>
</svg>
