<svg width="42" height="43" viewBox="0 0 42 43" fill="none" xmlns="http://www.w3.org/2000/svg">
<rect y="0.500244" width="42" height="42" rx="10" fill="#FFD600"/>
<path d="M17.0838 27.7559C16.1065 27.7521 15.2656 27.5116 14.5611 27.0343C13.8603 26.5571 13.3205 25.8658 12.9418 24.9605C12.5668 24.0552 12.3812 22.9662 12.3849 21.6934C12.3849 20.4245 12.5724 19.343 12.9474 18.4491C13.3262 17.5552 13.866 16.8752 14.5668 16.4093C15.2713 15.9396 16.1103 15.7048 17.0838 15.7048C18.0573 15.7048 18.8944 15.9396 19.5952 16.4093C20.2997 16.879 20.8414 17.5608 21.2202 18.4548C21.599 19.3449 21.7865 20.4245 21.7827 21.6934C21.7827 22.9699 21.5933 24.0609 21.2145 24.9662C20.8395 25.8715 20.3016 26.5627 19.6009 27.04C18.9001 27.5173 18.0611 27.7559 17.0838 27.7559ZM17.0838 25.7162C17.7505 25.7162 18.2827 25.3809 18.6804 24.7105C19.0781 24.04 19.2751 23.0343 19.2713 21.6934C19.2713 20.8108 19.1804 20.076 18.9986 19.4889C18.8205 18.9018 18.5668 18.4605 18.2372 18.165C17.9115 17.8696 17.527 17.7218 17.0838 17.7218C16.4209 17.7218 15.8906 18.0533 15.4929 18.7162C15.0952 19.379 14.8944 20.3715 14.8906 21.6934C14.8906 22.5874 14.9796 23.3336 15.1577 23.9321C15.3395 24.5268 15.5952 24.9737 15.9247 25.273C16.2543 25.5684 16.6406 25.7162 17.0838 25.7162ZM28.5994 15.8639V27.5002H26.1392V18.1991H26.071L23.4062 19.8696V17.6877L26.2869 15.8639H28.5994Z" fill="#2A3848"/>
</svg>
