<svg width="42" height="43" viewBox="0 0 42 43" fill="none" xmlns="http://www.w3.org/2000/svg">
<rect y="0.500244" width="42" height="42" rx="10" fill="#FFD600"/>
<path d="M15.4588 27.7559C14.4815 27.7521 13.6406 27.5116 12.9361 27.0343C12.2353 26.5571 11.6955 25.8658 11.3168 24.9605C10.9418 24.0552 10.7562 22.9662 10.7599 21.6934C10.7599 20.4245 10.9474 19.343 11.3224 18.4491C11.7012 17.5552 12.241 16.8752 12.9418 16.4093C13.6463 15.9396 14.4853 15.7048 15.4588 15.7048C16.4323 15.7048 17.2694 15.9396 17.9702 16.4093C18.6747 16.879 19.2164 17.5608 19.5952 18.4548C19.974 19.3449 20.1615 20.4245 20.1577 21.6934C20.1577 22.9699 19.9683 24.0609 19.5895 24.9662C19.2145 25.8715 18.6766 26.5627 17.9759 27.04C17.2751 27.5173 16.4361 27.7559 15.4588 27.7559ZM15.4588 25.7162C16.1255 25.7162 16.6577 25.3809 17.0554 24.7105C17.4531 24.04 17.6501 23.0343 17.6463 21.6934C17.6463 20.8108 17.5554 20.076 17.3736 19.4889C17.1955 18.9018 16.9418 18.4605 16.6122 18.165C16.2865 17.8696 15.902 17.7218 15.4588 17.7218C14.7959 17.7218 14.2656 18.0533 13.8679 18.7162C13.4702 19.379 13.2694 20.3715 13.2656 21.6934C13.2656 22.5874 13.3546 23.3336 13.5327 23.9321C13.7145 24.5268 13.9702 24.9737 14.2997 25.273C14.6293 25.5684 15.0156 25.7162 15.4588 25.7162ZM21.9119 27.5002V25.7275L26.054 21.8923C26.4063 21.5514 26.7017 21.2446 26.9403 20.9718C27.1828 20.6991 27.3665 20.4321 27.4915 20.1707C27.6165 19.9055 27.679 19.6196 27.679 19.3127C27.679 18.9718 27.6013 18.6783 27.446 18.4321C27.2907 18.1821 27.0786 17.9908 26.8097 17.8582C26.5407 17.7218 26.2358 17.6537 25.8949 17.6537C25.5388 17.6537 25.2282 17.7256 24.9631 17.8696C24.6979 18.0135 24.4934 18.2199 24.3494 18.4889C24.2055 18.7578 24.1335 19.0779 24.1335 19.4491H21.7983C21.7983 18.6877 21.9706 18.0268 22.3153 17.4662C22.66 16.9055 23.143 16.4718 23.7642 16.165C24.3854 15.8582 25.1013 15.7048 25.9119 15.7048C26.7453 15.7048 27.4706 15.8525 28.0881 16.148C28.7093 16.4396 29.1922 16.8449 29.5369 17.3639C29.8816 17.8828 30.054 18.4775 30.054 19.148C30.054 19.5874 29.9669 20.0211 29.7926 20.4491C29.6222 20.8771 29.3172 21.3525 28.8778 21.8752C28.4384 22.3942 27.8191 23.0173 27.0199 23.7446L25.321 25.4093V25.4889H30.2074V27.5002H21.9119Z" fill="#2A3848"/>
</svg>
