<svg width="42" height="43" viewBox="0 0 42 43" fill="none" xmlns="http://www.w3.org/2000/svg">
<rect y="0.500244" width="42" height="42" rx="10" fill="#FFD600"/>
<path d="M15.3416 27.7559C14.3643 27.7521 13.5234 27.5116 12.8189 27.0343C12.1181 26.5571 11.5784 25.8658 11.1996 24.9605C10.8246 24.0552 10.639 22.9662 10.6428 21.6934C10.6428 20.4245 10.8303 19.343 11.2053 18.4491C11.584 17.5552 12.1238 16.8752 12.8246 16.4093C13.5291 15.9396 14.3681 15.7048 15.3416 15.7048C16.3151 15.7048 17.1522 15.9396 17.853 16.4093C18.5575 16.879 19.0992 17.5608 19.478 18.4548C19.8568 19.3449 20.0443 20.4245 20.0405 21.6934C20.0405 22.9699 19.8511 24.0609 19.4723 24.9662C19.0973 25.8715 18.5594 26.5627 17.8587 27.04C17.1579 27.5173 16.3189 27.7559 15.3416 27.7559ZM15.3416 25.7162C16.0083 25.7162 16.5405 25.3809 16.9382 24.7105C17.3359 24.04 17.5329 23.0343 17.5291 21.6934C17.5291 20.8108 17.4382 20.076 17.2564 19.4889C17.0784 18.9018 16.8246 18.4605 16.495 18.165C16.1693 17.8696 15.7848 17.7218 15.3416 17.7218C14.6787 17.7218 14.1484 18.0533 13.7507 18.7162C13.353 19.379 13.1522 20.3715 13.1484 21.6934C13.1484 22.5874 13.2375 23.3336 13.4155 23.9321C13.5973 24.5268 13.853 24.9737 14.1825 25.273C14.5121 25.5684 14.8984 25.7162 15.3416 25.7162ZM26.0447 27.6593C25.2417 27.6593 24.5258 27.5116 23.897 27.2162C23.272 26.9207 22.7758 26.5135 22.4084 25.9946C22.041 25.4756 21.8497 24.8809 21.8345 24.2105H24.2209C24.2474 24.6612 24.4368 25.0268 24.7891 25.3071C25.1413 25.5874 25.5599 25.7275 26.0447 25.7275C26.4311 25.7275 26.772 25.6423 27.0675 25.4718C27.3667 25.2976 27.5997 25.0571 27.7663 24.7502C27.9368 24.4396 28.022 24.0836 28.022 23.6821C28.022 23.273 27.9349 22.9131 27.7607 22.6025C27.5902 22.2919 27.3535 22.0495 27.0504 21.8752C26.7474 21.701 26.4008 21.612 26.0107 21.6082C25.6697 21.6082 25.3383 21.6783 25.0163 21.8184C24.6982 21.9586 24.45 22.1499 24.272 22.3923L22.0845 22.0002L22.6357 15.8639H29.7493V17.8752H24.6641L24.3629 20.79H24.4311C24.6357 20.5021 24.9444 20.2635 25.3572 20.0741C25.7701 19.8847 26.2322 19.79 26.7436 19.79C27.4444 19.79 28.0694 19.9548 28.6186 20.2843C29.1679 20.6139 29.6016 21.0665 29.9197 21.6423C30.2379 22.2143 30.3951 22.8734 30.3913 23.6196C30.3951 24.4037 30.2133 25.1006 29.8459 25.7105C29.4822 26.3165 28.9728 26.7938 28.3175 27.1423C27.666 27.487 26.9084 27.6593 26.0447 27.6593Z" fill="#2A3848"/>
</svg>
