<svg width="42" height="43" viewBox="0 0 42 43" fill="none" xmlns="http://www.w3.org/2000/svg">
<rect y="0.500244" width="42" height="42" rx="10" fill="#FFD600"/>
<path d="M15.2244 27.7559C14.2472 27.7521 13.4063 27.5116 12.7017 27.0343C12.0009 26.5571 11.4612 25.8658 11.0824 24.9605C10.7074 24.0552 10.5218 22.9662 10.5256 21.6934C10.5256 20.4245 10.7131 19.343 11.0881 18.4491C11.4669 17.5552 12.0066 16.8752 12.7074 16.4093C13.4119 15.9396 14.2509 15.7048 15.2244 15.7048C16.1979 15.7048 17.035 15.9396 17.7358 16.4093C18.4403 16.879 18.982 17.5608 19.3608 18.4548C19.7396 19.3449 19.9271 20.4245 19.9233 21.6934C19.9233 22.9699 19.7339 24.0609 19.3551 24.9662C18.9801 25.8715 18.4422 26.5627 17.7415 27.04C17.0407 27.5173 16.2017 27.7559 15.2244 27.7559ZM15.2244 25.7162C15.8911 25.7162 16.4233 25.3809 16.821 24.7105C17.2188 24.04 17.4157 23.0343 17.4119 21.6934C17.4119 20.8108 17.321 20.076 17.1392 19.4889C16.9612 18.9018 16.7074 18.4605 16.3778 18.165C16.0521 17.8696 15.6676 17.7218 15.2244 17.7218C14.5616 17.7218 14.0313 18.0533 13.6335 18.7162C13.2358 19.379 13.035 20.3715 13.0312 21.6934C13.0312 22.5874 13.1203 23.3336 13.2983 23.9321C13.4801 24.5268 13.7358 24.9737 14.0653 25.273C14.3949 25.5684 14.7812 25.7162 15.2244 25.7162ZM25.9787 27.6593C25.1302 27.6593 24.3745 27.5135 23.7116 27.2218C23.0526 26.9264 22.5317 26.5211 22.1491 26.0059C21.7704 25.487 21.5753 24.8885 21.5639 24.2105H24.0412C24.0563 24.4946 24.1491 24.7446 24.3196 24.9605C24.4938 25.1726 24.7249 25.3374 25.0128 25.4548C25.3007 25.5722 25.6245 25.6309 25.9844 25.6309C26.3594 25.6309 26.6908 25.5646 26.9787 25.4321C27.2666 25.2995 27.492 25.1158 27.6548 24.8809C27.8177 24.6461 27.8991 24.3752 27.8991 24.0684C27.8991 23.7578 27.812 23.4832 27.6378 23.2446C27.4673 23.0021 27.2211 22.8127 26.8991 22.6764C26.581 22.54 26.2022 22.4718 25.7628 22.4718H24.6776V20.665H25.7628C26.134 20.665 26.4616 20.6006 26.7457 20.4718C27.0336 20.343 27.2571 20.165 27.4162 19.9377C27.5753 19.7067 27.6548 19.4377 27.6548 19.1309C27.6548 18.8393 27.5848 18.5836 27.4446 18.3639C27.3082 18.1404 27.1151 17.9662 26.8651 17.8412C26.6188 17.7162 26.331 17.6537 26.0014 17.6537C25.6681 17.6537 25.3632 17.7143 25.0866 17.8355C24.8101 17.9529 24.5885 18.1215 24.4219 18.3412C24.2552 18.5608 24.1662 18.8184 24.1548 19.1139H21.7969C21.8082 18.4434 21.9995 17.8525 22.3707 17.3412C22.742 16.8298 23.242 16.4302 23.8707 16.1423C24.5033 15.8506 25.2173 15.7048 26.0128 15.7048C26.8158 15.7048 27.5185 15.8506 28.1207 16.1423C28.723 16.434 29.1908 16.8279 29.5241 17.3241C29.8613 17.8165 30.0279 18.3696 30.0241 18.9832C30.0279 19.6347 29.8253 20.1783 29.4162 20.6139C29.0109 21.0495 28.4825 21.326 27.831 21.4434V21.5343C28.687 21.6442 29.3385 21.9415 29.7855 22.4264C30.2363 22.9074 30.4598 23.5097 30.456 24.2332C30.4598 24.8961 30.2685 25.4851 29.8821 26.0002C29.4995 26.5154 28.9711 26.9207 28.2969 27.2162C27.6226 27.5116 26.8499 27.6593 25.9787 27.6593Z" fill="#2A3848"/>
</svg>
