<svg width="42" height="43" viewBox="0 0 42 43" fill="none" xmlns="http://www.w3.org/2000/svg">
<rect y="0.500244" width="42" height="42" rx="10" fill="#FFD600"/>
<path d="M15.2166 27.7559C14.2393 27.7521 13.3984 27.5116 12.6939 27.0343C11.9931 26.5571 11.4534 25.8658 11.0746 24.9605C10.6996 24.0552 10.514 22.9662 10.5178 21.6934C10.5178 20.4245 10.7053 19.343 11.0803 18.4491C11.459 17.5552 11.9988 16.8752 12.6996 16.4093C13.4041 15.9396 14.2431 15.7048 15.2166 15.7048C16.1901 15.7048 17.0272 15.9396 17.728 16.4093C18.4325 16.879 18.9742 17.5608 19.353 18.4548C19.7318 19.3449 19.9193 20.4245 19.9155 21.6934C19.9155 22.9699 19.7261 24.0609 19.3473 24.9662C18.9723 25.8715 18.4344 26.5627 17.7337 27.04C17.0329 27.5173 16.1939 27.7559 15.2166 27.7559ZM15.2166 25.7162C15.8833 25.7162 16.4155 25.3809 16.8132 24.7105C17.2109 24.04 17.4079 23.0343 17.4041 21.6934C17.4041 20.8108 17.3132 20.076 17.1314 19.4889C16.9534 18.9018 16.6996 18.4605 16.37 18.165C16.0443 17.8696 15.6598 17.7218 15.2166 17.7218C14.5537 17.7218 14.0234 18.0533 13.6257 18.7162C13.228 19.379 13.0272 20.3715 13.0234 21.6934C13.0234 22.5874 13.1125 23.3336 13.2905 23.9321C13.4723 24.5268 13.728 24.9737 14.0575 25.273C14.3871 25.5684 14.7734 25.7162 15.2166 25.7162ZM26.1357 27.6593C25.5372 27.6555 24.9595 27.5552 24.4027 27.3582C23.8497 27.1612 23.3535 26.8412 22.9141 26.398C22.4747 25.9548 22.1262 25.3677 21.8686 24.6366C21.6148 23.9055 21.4879 23.0078 21.4879 21.9434C21.4917 20.9662 21.6035 20.093 21.8232 19.3241C22.0466 18.5514 22.3648 17.8961 22.7777 17.3582C23.1944 16.8203 23.6925 16.4112 24.272 16.1309C24.8516 15.8468 25.5012 15.7048 26.2209 15.7048C26.9974 15.7048 27.683 15.8563 28.2777 16.1593C28.8724 16.4586 29.3497 16.8658 29.7095 17.3809C30.0732 17.8961 30.2929 18.4737 30.3686 19.1139H27.9425C27.8478 18.7086 27.6489 18.3904 27.3459 18.1593C27.0429 17.9283 26.6679 17.8127 26.2209 17.8127C25.4633 17.8127 24.8875 18.1423 24.4936 18.8014C24.1035 19.4605 23.9046 20.3563 23.897 21.4889H23.9766C24.1508 21.1442 24.3857 20.8506 24.6811 20.6082C24.9804 20.362 25.3194 20.1745 25.6982 20.0457C26.0807 19.9131 26.4841 19.8468 26.9084 19.8468C27.5978 19.8468 28.2114 20.0097 28.7493 20.3355C29.2872 20.6574 29.7114 21.1006 30.022 21.665C30.3326 22.2294 30.4879 22.8752 30.4879 23.6025C30.4879 24.3904 30.3042 25.0912 29.9368 25.7048C29.5732 26.3184 29.0637 26.7995 28.4084 27.148C27.7569 27.4927 26.9993 27.6631 26.1357 27.6593ZM26.1243 25.7275C26.5031 25.7275 26.8421 25.6366 27.1413 25.4548C27.4406 25.273 27.6754 25.0268 27.8459 24.7162C28.0163 24.4055 28.1016 24.0571 28.1016 23.6707C28.1016 23.2843 28.0163 22.9377 27.8459 22.6309C27.6792 22.3241 27.4482 22.0798 27.1527 21.898C26.8572 21.7162 26.5201 21.6252 26.1413 21.6252C25.8572 21.6252 25.594 21.6783 25.3516 21.7843C25.1129 21.8904 24.9027 22.0381 24.7209 22.2275C24.5429 22.4169 24.4027 22.6366 24.3004 22.8866C24.1982 23.1328 24.147 23.3961 24.147 23.6764C24.147 24.0514 24.2322 24.3942 24.4027 24.7048C24.5769 25.0154 24.8118 25.2635 25.1072 25.4491C25.4065 25.6347 25.7455 25.7275 26.1243 25.7275Z" fill="#2A3848"/>
</svg>
