<svg width="42" height="43" viewBox="0 0 42 43" fill="none" xmlns="http://www.w3.org/2000/svg">
<rect y="0.500244" width="42" height="42" rx="10" fill="#FFD600"/>
<path d="M15.076 27.7559C14.0987 27.7521 13.2578 27.5116 12.5533 27.0343C11.8525 26.5571 11.3127 25.8658 10.9339 24.9605C10.5589 24.0552 10.3733 22.9662 10.3771 21.6934C10.3771 20.4245 10.5646 19.343 10.9396 18.4491C11.3184 17.5552 11.8582 16.8752 12.5589 16.4093C13.2635 15.9396 14.1025 15.7048 15.076 15.7048C16.0495 15.7048 16.8866 15.9396 17.5874 16.4093C18.2919 16.879 18.8336 17.5608 19.2124 18.4548C19.5911 19.3449 19.7786 20.4245 19.7749 21.6934C19.7749 22.9699 19.5855 24.0609 19.2067 24.9662C18.8317 25.8715 18.2938 26.5627 17.593 27.04C16.8923 27.5173 16.0533 27.7559 15.076 27.7559ZM15.076 25.7162C15.7427 25.7162 16.2749 25.3809 16.6726 24.7105C17.0703 24.04 17.2673 23.0343 17.2635 21.6934C17.2635 20.8108 17.1726 20.076 16.9908 19.4889C16.8127 18.9018 16.5589 18.4605 16.2294 18.165C15.9036 17.8696 15.5192 17.7218 15.076 17.7218C14.4131 17.7218 13.8828 18.0533 13.4851 18.7162C13.0874 19.379 12.8866 20.3715 12.8828 21.6934C12.8828 22.5874 12.9718 23.3336 13.1499 23.9321C13.3317 24.5268 13.5874 24.9737 13.9169 25.273C14.2464 25.5684 14.6328 25.7162 15.076 25.7162ZM21.353 25.4548V23.5173L26.2109 15.8639H27.8814V18.5457H26.8928L23.8303 23.3923V23.4832H30.7337V25.4548H21.353ZM26.9382 27.5002V24.8639L26.9837 24.0059V15.8639H29.2905V27.5002H26.9382Z" fill="#2A3848"/>
</svg>
