<svg width="16" height="15" viewBox="0 0 16 15" fill="none" xmlns="http://www.w3.org/2000/svg">
<path fill-rule="evenodd" clip-rule="evenodd" d="M0.30011 1.99999C0.30011 1.70825 0.416006 1.42847 0.622289 1.22217C0.828583 1.01589 1.10837 0.899994 1.40011 0.899994H14.6001C14.8918 0.899994 15.1717 1.01589 15.3779 1.22217C15.5842 1.42847 15.7001 1.70825 15.7001 1.99999C15.7001 2.29174 15.5842 2.57152 15.3779 2.77781C15.1717 2.9841 14.8918 3.09999 14.6001 3.09999H1.40011C1.10837 3.09999 0.828583 2.9841 0.622289 2.77781C0.416006 2.57152 0.30011 2.29174 0.30011 1.99999ZM0.30011 7.49999C0.30011 7.20825 0.416006 6.92847 0.622289 6.72217C0.828583 6.51589 1.10837 6.39999 1.40011 6.39999H8.00011C8.29183 6.39999 8.57167 6.51589 8.77792 6.72217C8.98417 6.92847 9.10011 7.20825 9.10011 7.49999C9.10011 7.79171 8.98417 8.07155 8.77792 8.2778C8.57167 8.48405 8.29183 8.59999 8.00011 8.59999H1.40011C1.10837 8.59999 0.828583 8.48405 0.622289 8.2778C0.416006 8.07155 0.30011 7.79171 0.30011 7.49999ZM0.30011 13C0.30011 12.7083 0.416006 12.4284 0.622289 12.2222C0.828583 12.0159 1.10837 11.9 1.40011 11.9H14.6001C14.8918 11.9 15.1717 12.0159 15.3779 12.2222C15.5842 12.4284 15.7001 12.7083 15.7001 13C15.7001 13.2917 15.5842 13.5716 15.3779 13.7778C15.1717 13.9841 14.8918 14.1 14.6001 14.1H1.40011C1.10837 14.1 0.828583 13.9841 0.622289 13.7778C0.416006 13.5716 0.30011 13.2917 0.30011 13Z" fill="#333845"/>
</svg>
