<svg width="117" height="22" viewBox="0 0 117 22" fill="none" xmlns="http://www.w3.org/2000/svg">
<path d="M115.355 15.199C115.313 15.199 115.284 15.1738 115.267 15.1233L112.68 6.65557C112.663 6.63033 112.663 6.60509 112.68 6.57985C112.705 6.55461 112.739 6.54199 112.781 6.54199H114.27C114.32 6.54199 114.354 6.56723 114.371 6.61771L116.996 15.0728C117.013 15.1569 116.979 15.199 116.895 15.199H115.355ZM111.885 13.6847C111.818 13.9202 111.742 14.16 111.658 14.404C111.582 14.648 111.51 14.8877 111.443 15.1233C111.426 15.1738 111.393 15.199 111.342 15.199H109.815C109.773 15.199 109.74 15.1864 109.714 15.1612C109.697 15.1359 109.697 15.1065 109.714 15.0728L112.049 7.50108C112.066 7.4506 112.099 7.42536 112.15 7.42536C112.2 7.42536 112.234 7.4506 112.251 7.50108L113.021 9.94927L112.352 12.0315H113.563C113.614 12.0315 113.647 12.0567 113.664 12.1072L114.106 13.5585C114.123 13.5921 114.119 13.6216 114.093 13.6468C114.076 13.672 114.047 13.6847 114.005 13.6847H111.885Z" fill="white"/>
<path d="M107.139 15.1991C107.08 15.1991 107.05 15.1654 107.05 15.0981V11.123L108.527 9.02812C108.56 8.98606 108.598 8.97344 108.64 8.99026C108.691 9.00709 108.716 9.04074 108.716 9.09122V15.0981C108.716 15.1654 108.682 15.1991 108.615 15.1991H107.139ZM102.154 12.8518C102.12 12.8939 102.082 12.9065 102.04 12.8897C101.998 12.8729 101.977 12.8392 101.977 12.7887V6.64302C101.977 6.58413 102.011 6.55469 102.078 6.55469H103.529C103.597 6.55469 103.63 6.58413 103.63 6.64302V10.7444L102.154 12.8518ZM102.078 15.1991C102.011 15.1991 101.977 15.1654 101.977 15.0981V14.2148L107.29 6.59255C107.298 6.57572 107.311 6.56731 107.328 6.56731C107.345 6.55889 107.361 6.55469 107.378 6.55469H108.615C108.682 6.55469 108.716 6.58413 108.716 6.64302V7.66521L103.454 15.1612C103.437 15.1865 103.407 15.1991 103.365 15.1991H102.078Z" fill="white"/>
<path d="M93.4088 13.6468C93.4088 13.5795 93.4424 13.5458 93.5097 13.5458H94.1533L96.0084 7.50108C96.0252 7.4506 96.0589 7.42536 96.1093 7.42536C96.1598 7.42536 96.1935 7.4506 96.2103 7.50108L96.9927 9.94927L95.8948 13.5458H101.031C101.098 13.5458 101.132 13.5795 101.132 13.6468V15.0854C101.132 15.1527 101.098 15.1864 101.031 15.1864H93.5097C93.4424 15.1864 93.4088 15.1527 93.4088 15.0854V13.6468ZM98.6585 12.978C98.608 12.978 98.5744 12.9527 98.5575 12.9022L96.6394 6.65557C96.6225 6.63033 96.6225 6.60509 96.6394 6.57985C96.6646 6.55461 96.6982 6.54199 96.7403 6.54199H98.242C98.2925 6.54199 98.3262 6.56723 98.343 6.61771L100.286 12.8518C100.303 12.8854 100.299 12.9149 100.274 12.9401C100.257 12.9653 100.228 12.978 100.185 12.978H98.6585Z" fill="white"/>
<path d="M87.0812 15.1865C87.0139 15.1865 86.9802 15.1528 86.9802 15.0855V6.64302C86.9802 6.58413 87.0139 6.55469 87.0812 6.55469H88.5829C88.6502 6.55469 88.6839 6.58413 88.6839 6.64302V15.0855C88.6839 15.1528 88.6502 15.1865 88.5829 15.1865H87.0812ZM89.4284 15.1865C89.3611 15.1865 89.3275 15.1528 89.3275 15.0855V13.6343C89.3275 13.567 89.3611 13.5333 89.4284 13.5333H92.7095C92.7768 13.5333 92.8105 13.567 92.8105 13.6343V15.0855C92.8105 15.1528 92.7768 15.1865 92.7095 15.1865H89.4284ZM89.4284 8.20785C89.3611 8.20785 89.3275 8.1742 89.3275 8.10689V6.64302C89.3275 6.58413 89.3611 6.55469 89.4284 6.55469H92.7095C92.7768 6.55469 92.8105 6.58413 92.8105 6.64302V8.10689C92.8105 8.1742 92.7768 8.20785 92.7095 8.20785H89.4284ZM91.8892 10.0629C91.9565 10.0629 91.9902 10.0966 91.9902 10.1639V11.6151C91.9902 11.6824 91.9565 11.7161 91.8892 11.7161H89.4284C89.3611 11.7161 89.3275 11.6824 89.3275 11.6151V10.1639C89.3275 10.0966 89.3611 10.0629 89.4284 10.0629H91.8892Z" fill="white"/>
<path d="M83.7304 15.1865C83.6715 15.1865 83.6421 15.1528 83.6421 15.0855V9.44457L83.2887 9.93673C83.2719 9.96197 83.2466 9.97459 83.213 9.97459C83.1878 9.96617 83.1667 9.95356 83.1499 9.93673L82.2539 8.76311C82.2287 8.72105 82.2287 8.67898 82.2539 8.63691L83.7809 6.59255C83.8061 6.56731 83.8314 6.55469 83.8566 6.55469H85.1816C85.2489 6.55469 85.2826 6.58413 85.2826 6.64302V15.0855C85.2826 15.1528 85.2489 15.1865 85.1816 15.1865H83.7304ZM78.4302 15.1865C78.3629 15.1865 78.3292 15.1528 78.3292 15.0855V8.68739C78.3292 8.63691 78.3503 8.60326 78.3923 8.58644C78.4344 8.56961 78.4722 8.58223 78.5059 8.62429L79.9824 10.5677V15.0855C79.9824 15.1528 79.9487 15.1865 79.8814 15.1865H78.4302ZM81.8879 11.817C81.8711 11.8507 81.8459 11.8675 81.8122 11.8675C81.7786 11.8675 81.7533 11.8507 81.7365 11.817L78.3292 7.28662V6.64302C78.3292 6.58413 78.3629 6.55469 78.4302 6.55469H79.73C79.7552 6.55469 79.7805 6.56731 79.8057 6.59255L82.7587 10.5046C82.7839 10.5467 82.7839 10.5887 82.7587 10.6308L81.8879 11.817Z" fill="white"/>
<path d="M71.8074 10.7316C71.8074 10.6895 71.8242 10.6685 71.8578 10.6685H76.1485C76.1906 10.6685 76.2116 10.6895 76.2116 10.7316V12.0945C76.2116 12.1281 76.1906 12.1449 76.1485 12.1449H71.8578C71.8242 12.1449 71.8074 12.1281 71.8074 12.0945V10.7316Z" fill="white"/>
<path d="M66.0455 15.2367C65.6501 15.2367 65.2799 15.1568 64.935 14.9969C64.5901 14.8287 64.2914 14.6099 64.039 14.3407C63.7866 14.0715 63.5847 13.7686 63.4333 13.4321C63.2903 13.0956 63.2188 12.7548 63.2188 12.4099V9.39383C63.2188 9.05731 63.2903 8.72499 63.4333 8.39688C63.5847 8.06036 63.7866 7.7617 64.039 7.50089C64.2998 7.23168 64.6027 7.01294 64.9476 6.84468C65.2926 6.67642 65.6585 6.59229 66.0455 6.59229H66.1086C66.1759 6.59229 66.2096 6.62173 66.2096 6.68062V8.06877C66.2096 8.13608 66.1759 8.16973 66.1086 8.16973H66.0455C65.9193 8.16973 65.7847 8.20759 65.6417 8.28331C65.4987 8.35061 65.3641 8.44315 65.2379 8.56094C65.1201 8.67031 65.0191 8.7965 64.935 8.93952C64.8593 9.08255 64.8214 9.22977 64.8214 9.38121V12.4351C64.8214 12.6118 64.8593 12.7759 64.935 12.9273C65.0191 13.0703 65.1201 13.1965 65.2379 13.3059C65.3641 13.4068 65.4987 13.4868 65.6417 13.5457C65.7847 13.6046 65.9193 13.634 66.0455 13.634H66.1086C66.1759 13.634 66.2096 13.6677 66.2096 13.735V15.1357C66.2096 15.203 66.1759 15.2367 66.1086 15.2367H66.0455ZM69.8062 12.4099C69.8062 12.7548 69.7304 13.0956 69.579 13.4321C69.436 13.7686 69.2383 14.0715 68.9859 14.3407C68.7335 14.6099 68.4348 14.8287 68.0899 14.9969C67.745 15.1568 67.3748 15.2367 66.9794 15.2367H66.9289C66.8616 15.2367 66.8279 15.203 66.8279 15.1357V13.735C66.8279 13.6677 66.8616 13.634 66.9289 13.634H66.9794C67.1056 13.634 67.2402 13.6088 67.3832 13.5583C67.5262 13.4994 67.6566 13.4195 67.7744 13.3185C67.8922 13.2091 67.9889 13.0829 68.0647 12.9399C68.1488 12.7885 68.1909 12.6202 68.1909 12.4351V12.3089C68.1909 12.2416 68.2245 12.208 68.2918 12.208H69.7052C69.7725 12.208 69.8062 12.2416 69.8062 12.3089V12.4099ZM68.2918 9.58312C68.2245 9.58312 68.1909 9.54947 68.1909 9.48216V9.38121C68.1909 9.21295 68.1488 9.05731 68.0647 8.91428C67.9889 8.76285 67.8922 8.63245 67.7744 8.52308C67.6566 8.41371 67.5262 8.32958 67.3832 8.27069C67.2402 8.20338 67.1056 8.16973 66.9794 8.16973H66.9289C66.8616 8.16973 66.8279 8.13608 66.8279 8.06877V6.68062C66.8279 6.62173 66.8616 6.59229 66.9289 6.59229H66.9794C67.3748 6.59229 67.745 6.67642 68.0899 6.84468C68.4348 7.01294 68.7335 7.23168 68.9859 7.50089C69.2383 7.7617 69.436 8.06036 69.579 8.39688C69.7304 8.72499 69.8062 9.05731 69.8062 9.39383V9.48216C69.8062 9.54947 69.7725 9.58312 69.7052 9.58312H68.2918Z" fill="white"/>
<path d="M59.9542 15.1865C59.8868 15.1865 59.8532 15.1528 59.8532 15.0855V11.7287H58.831C58.7637 11.7287 58.7301 11.6951 58.7301 11.6278V10.1639C58.7301 10.0966 58.7637 10.0629 58.831 10.0629H59.8532V6.64302C59.8532 6.58413 59.8868 6.55469 59.9542 6.55469H61.4685C61.5358 6.55469 61.5695 6.58413 61.5695 6.64302V15.0855C61.5695 15.1528 61.5358 15.1865 61.4685 15.1865H59.9542ZM58.0991 11.6278C58.0991 11.6951 58.0654 11.7287 57.9981 11.7287H56.875V15.0855C56.875 15.1528 56.8413 15.1865 56.774 15.1865H55.3354C55.2681 15.1865 55.2344 15.1528 55.2344 15.0855V6.64302C55.2344 6.58413 55.2681 6.55469 55.3354 6.55469H56.774C56.8413 6.55469 56.875 6.58413 56.875 6.64302V10.0629H57.9981C58.0654 10.0629 58.0991 10.0966 58.0991 10.1639V11.6278Z" fill="white"/>
<path d="M52.3807 15.199C52.3386 15.199 52.3092 15.1738 52.2923 15.1233L49.7053 6.65557C49.6885 6.63033 49.6885 6.60509 49.7053 6.57985C49.7306 6.55461 49.7642 6.54199 49.8063 6.54199H51.2954C51.3459 6.54199 51.3795 6.56723 51.3963 6.61771L54.0212 15.0728C54.038 15.1569 54.0044 15.199 53.9203 15.199H52.3807ZM48.9103 13.6847C48.843 13.9202 48.7673 14.16 48.6831 14.404C48.6074 14.648 48.5359 14.8877 48.4686 15.1233C48.4518 15.1738 48.4181 15.199 48.3677 15.199H46.8407C46.7986 15.199 46.765 15.1864 46.7397 15.1612C46.7229 15.1359 46.7229 15.1065 46.7397 15.0728L49.0744 7.50108C49.0912 7.4506 49.1248 7.42536 49.1753 7.42536C49.2258 7.42536 49.2594 7.4506 49.2763 7.50108L50.0461 9.94927L49.3772 12.0315H50.5887C50.6392 12.0315 50.6728 12.0567 50.6897 12.1072L51.1313 13.5585C51.1482 13.5921 51.144 13.6216 51.1187 13.6468C51.1019 13.672 51.0724 13.6847 51.0304 13.6847H48.9103Z" fill="white"/>
<path d="M45.6662 9.00281C45.6662 9.35615 45.582 9.67585 45.4138 9.96189C45.2455 10.2395 45.0646 10.4541 44.8711 10.6055C45.2077 10.8242 45.4516 11.1019 45.6031 11.4384C45.7545 11.7749 45.8302 12.1325 45.8302 12.511C45.8302 12.9233 45.7671 13.2935 45.6409 13.6216C45.5147 13.9497 45.3381 14.2315 45.1109 14.4671C44.8838 14.6942 44.6061 14.8709 44.278 14.9971C43.9583 15.1233 43.5966 15.1864 43.1927 15.1864H41.9686C41.9013 15.1864 41.8677 15.1527 41.8677 15.0854V13.7225C41.8677 13.6552 41.9013 13.6216 41.9686 13.6216H43.2937C43.5629 13.6216 43.7859 13.5164 43.9625 13.3061C44.1476 13.0957 44.2402 12.856 44.2402 12.5868V12.5237C44.2402 12.3975 44.2149 12.2713 44.1644 12.1451C44.1224 12.0189 44.0593 11.9053 43.9751 11.8043C43.891 11.7034 43.7901 11.6235 43.6723 11.5646C43.5545 11.5057 43.4283 11.4762 43.2937 11.4762H41.9686C41.9013 11.4762 41.8677 11.4426 41.8677 11.3753V9.97451C41.8677 9.91562 41.9013 9.88618 41.9686 9.88618H43.1675C43.462 9.88618 43.6849 9.80625 43.8363 9.6464C43.9962 9.48656 44.0761 9.28885 44.0761 9.05328V8.97757C44.0761 8.75883 44.0046 8.56954 43.8616 8.40969C43.7186 8.24984 43.4872 8.16992 43.1675 8.16992H41.9686C41.9013 8.16992 41.8677 8.13626 41.8677 8.06896V6.63033C41.8677 6.57144 41.9013 6.54199 41.9686 6.54199H43.0539C43.8616 6.54199 44.4968 6.75232 44.9595 7.17297C45.4306 7.59362 45.6662 8.20357 45.6662 9.00281ZM41.2367 15.0854C41.2367 15.1527 41.2031 15.1864 41.1357 15.1864H39.6593C39.6004 15.1864 39.5709 15.1527 39.5709 15.0854V6.63033C39.5709 6.57144 39.6004 6.54199 39.6593 6.54199H41.1357C41.2031 6.54199 41.2367 6.57144 41.2367 6.63033V15.0854Z" fill="white"/>
<path d="M30.9394 13.6468C30.9394 13.5795 30.9731 13.5458 31.0404 13.5458H31.684L33.5391 7.50108C33.5559 7.4506 33.5895 7.42536 33.64 7.42536C33.6905 7.42536 33.7241 7.4506 33.741 7.50108L34.5234 9.94927L33.4255 13.5458H38.5616C38.6289 13.5458 38.6626 13.5795 38.6626 13.6468V15.0854C38.6626 15.1527 38.6289 15.1864 38.5616 15.1864H31.0404C30.9731 15.1864 30.9394 15.1527 30.9394 15.0854V13.6468ZM36.1892 12.978C36.1387 12.978 36.105 12.9527 36.0882 12.9022L34.17 6.65557C34.1532 6.63033 34.1532 6.60509 34.17 6.57985C34.1953 6.55461 34.2289 6.54199 34.271 6.54199H35.7727C35.8232 6.54199 35.8568 6.56723 35.8737 6.61771L37.8171 12.8518C37.8339 12.8854 37.8297 12.9149 37.8045 12.9401C37.7876 12.9653 37.7582 12.978 37.7161 12.978H36.1892Z" fill="white"/>
<path d="M28.8176 15.199C28.7755 15.199 28.7461 15.1738 28.7292 15.1233L26.1422 6.65557C26.1254 6.63033 26.1254 6.60509 26.1422 6.57985C26.1675 6.55461 26.2011 6.54199 26.2432 6.54199H27.7323C27.7828 6.54199 27.8164 6.56723 27.8332 6.61771L30.4581 15.0728C30.4749 15.1569 30.4413 15.199 30.3572 15.199H28.8176ZM25.3472 13.6847C25.2799 13.9202 25.2042 14.16 25.12 14.404C25.0443 14.648 24.9728 14.8877 24.9055 15.1233C24.8887 15.1738 24.855 15.199 24.8045 15.199H23.2776C23.2355 15.199 23.2019 15.1864 23.1766 15.1612C23.1598 15.1359 23.1598 15.1065 23.1766 15.0728L25.5112 7.50108C25.5281 7.4506 25.5617 7.42536 25.6122 7.42536C25.6627 7.42536 25.6963 7.4506 25.7132 7.50108L26.4829 9.94927L25.8141 12.0315H27.0256C27.0761 12.0315 27.1097 12.0567 27.1265 12.1072L27.5682 13.5585C27.5851 13.5921 27.5808 13.6216 27.5556 13.6468C27.5388 13.672 27.5093 13.6847 27.4673 13.6847H25.3472Z" fill="white"/>
<path d="M11.9784 10.985C11.9784 12.0953 11.0783 12.9954 9.96804 12.9954C8.85773 12.9954 7.95764 12.0953 7.95764 10.985C7.95764 9.87469 8.85773 8.97461 9.96804 8.97461C11.0783 8.97461 11.9784 9.87469 11.9784 10.985Z" fill="white"/>
<path d="M9.38303 5.24805H10.5531V17.6635H9.38303V5.24805Z" fill="white"/>
<path d="M14.3561 7.22412L14.9712 8.21944L4.40987 14.7463L3.79477 13.751L14.3561 7.22412Z" fill="white"/>
<path d="M4.40662 8.21875L5.02179 7.22348L15.5827 13.7511L14.9675 14.7464L4.40662 8.21875Z" fill="white"/>
<path d="M12.8157 3.43561C12.8157 5.00836 11.5408 6.28333 9.96802 6.28333C8.39527 6.28333 7.1203 5.00836 7.1203 3.43561C7.1203 1.86286 8.39527 0.587891 9.96802 0.587891C11.5408 0.587891 12.8157 1.86286 12.8157 3.43561Z" fill="#DC7C44"/>
<path d="M12.8157 18.5347C12.8157 20.1075 11.5408 21.3825 9.96802 21.3825C8.39527 21.3825 7.1203 20.1075 7.1203 18.5347C7.1203 16.962 8.39527 15.687 9.96802 15.687C11.5408 15.687 12.8157 16.962 12.8157 18.5347Z" fill="#4C8EAA"/>
<path d="M5.71314 6.96442C5.71314 8.53717 4.43817 9.81214 2.86542 9.81214C1.29267 9.81214 0.0177002 8.53717 0.0177002 6.96442C0.0177002 5.39167 1.29267 4.1167 2.86542 4.1167C4.43817 4.1167 5.71314 5.39167 5.71314 6.96442Z" fill="#EDB444"/>
<path d="M19.4862 6.96442C19.4862 8.53717 18.2112 9.81214 16.6385 9.81214C15.0657 9.81214 13.7908 8.53717 13.7908 6.96442C13.7908 5.39167 15.0657 4.1167 16.6385 4.1167C18.2112 4.1167 19.4862 5.39167 19.4862 6.96442Z" fill="#BA557B"/>
<path d="M5.71314 14.3038C5.71314 15.8765 4.43817 17.1515 2.86542 17.1515C1.29267 17.1515 0.0177002 15.8765 0.0177002 14.3038C0.0177002 12.731 1.29267 11.4561 2.86542 11.4561C4.43817 11.4561 5.71314 12.731 5.71314 14.3038Z" fill="#D24A43"/>
<path d="M19.4862 14.3038C19.4862 15.8765 18.2112 17.1515 16.6385 17.1515C15.0657 17.1515 13.7908 15.8765 13.7908 14.3038C13.7908 12.731 15.0657 11.4561 16.6385 11.4561C18.2112 11.4561 19.4862 12.731 19.4862 14.3038Z" fill="#4C679B"/>
</svg>
