<svg width="48" height="48" viewBox="0 0 48 48" fill="none" xmlns="http://www.w3.org/2000/svg">
<rect x="0.758179" y="0.35022" width="47" height="47" rx="10" fill="white"/>
<path d="M31.0832 36.1002H17.4332C14.5457 36.1002 12.1832 33.7377 12.1832 30.8502V30.6752L12.7082 16.6752C12.7957 13.7877 15.1582 11.6002 17.9582 11.6002H30.5582C33.3582 11.6002 35.7207 13.7877 35.8082 16.6752L36.3332 30.6752C36.4207 32.0752 35.8957 33.3877 34.9332 34.4377C33.9707 35.4877 32.6582 36.1002 31.2582 36.1002C31.2582 36.1002 31.1707 36.1002 31.0832 36.1002ZM17.9582 13.3502C16.0332 13.3502 14.5457 14.8377 14.4582 16.6752L13.9332 30.8502C13.9332 32.7752 15.5082 34.3502 17.4332 34.3502H31.2582C32.2207 34.3502 33.0957 33.9127 33.7082 33.2127C34.3207 32.5127 34.6707 31.6377 34.6707 30.6752L34.1457 16.6752C34.0582 14.7502 32.5707 13.3502 30.6457 13.3502H17.9582Z" fill="#333845"/>
<path d="M24.2582 22.1002C20.8457 22.1002 18.1332 19.3877 18.1332 15.9752C18.1332 15.4502 18.4832 15.1002 19.0082 15.1002C19.5332 15.1002 19.8832 15.4502 19.8832 15.9752C19.8832 18.4252 21.8082 20.3502 24.2582 20.3502C26.7082 20.3502 28.6332 18.4252 28.6332 15.9752C28.6332 15.4502 28.9832 15.1002 29.5082 15.1002C30.0332 15.1002 30.3832 15.4502 30.3832 15.9752C30.3832 19.3877 27.6707 22.1002 24.2582 22.1002Z" fill="#333845"/>
</svg>
