<svg width="48" height="48" viewBox="0 0 48 48" fill="none" xmlns="http://www.w3.org/2000/svg">
<rect x="0.241821" y="0.35022" width="47" height="47" rx="10" fill="white"/>
<g clip-path="url(#clip0_22_12)">
<path d="M34.6645 13.9587H12.9632C12.0538 13.9587 11.3138 14.6987 11.3138 15.6081V32.0924C11.3138 33.0019 12.0538 33.7417 12.9632 33.7417H34.6645C35.5739 33.7417 36.3138 33.0019 36.3138 32.0924V15.6081C36.3138 14.6987 35.574 13.9587 34.6645 13.9587ZM12.9632 15.3725H34.6645C34.7922 15.3725 34.9001 15.4804 34.9001 15.6081V26.5856L31.12 21.7342C30.8395 21.3743 30.429 21.1586 29.9936 21.1425C29.5582 21.1262 29.1329 21.3113 28.8266 21.6498L23.922 27.0702C23.8039 27.2006 23.5419 27.2366 23.3929 27.1429L19.3602 24.6033C18.6692 24.168 17.6578 24.2129 17.0079 24.7075L12.7276 27.9651V15.6081C12.7276 15.4804 12.8355 15.3725 12.9632 15.3725ZM34.6645 32.328H12.9632C12.8355 32.328 12.7276 32.2201 12.7276 32.0924V29.7416L17.8642 25.8324C18.0426 25.6967 18.4174 25.6801 18.607 25.7995L22.6397 28.3391C23.3686 28.7982 24.3923 28.6574 24.9703 28.0187L29.8749 22.5983C29.9043 22.5658 29.9253 22.5559 29.9416 22.5552C29.954 22.5557 29.9779 22.5685 30.0049 22.6031L34.9001 28.8855V32.0923C34.9001 32.2201 34.7922 32.328 34.6645 32.328Z" fill="#333845"/>
<path d="M21.7606 23.5293C23.1412 23.5293 24.2644 22.4062 24.2644 21.0255C24.2644 19.6449 23.1412 18.5217 21.7606 18.5217C20.38 18.5217 19.2568 19.645 19.2568 21.0255C19.2568 22.4061 20.38 23.5293 21.7606 23.5293ZM21.7606 19.9354C22.3617 19.9354 22.8507 20.4243 22.8507 21.0254C22.8507 21.6265 22.3617 22.1155 21.7606 22.1155C21.1595 22.1155 20.6705 21.6265 20.6705 21.0254C20.6705 20.4244 21.1595 19.9354 21.7606 19.9354Z" fill="#333845"/>
</g>
<defs>
<clipPath id="clip0_22_12">
<rect width="25" height="25" fill="white" transform="translate(11.3138 11.3502)"/>
</clipPath>
</defs>
</svg>
