<svg width="48" height="48" viewBox="0 0 48 48" fill="none" xmlns="http://www.w3.org/2000/svg">
<rect x="0.241821" y="0.35022" width="47" height="47" rx="10" fill="white"/>
<g clip-path="url(#clip0_22_10)">
<path d="M26.5281 10.9403H23.258V12.9841H25.5062V16.8332C25.5062 20.214 22.7556 22.9646 19.3748 22.9646C15.994 22.9646 13.2434 20.2141 13.2434 16.8333V12.9841H15.4235V10.9403H12.2215C11.6571 10.9403 11.1996 11.3978 11.1996 11.9622V16.8333C11.1996 21.3412 14.8669 25.0084 19.3748 25.0084C23.8828 25.0084 27.55 21.3412 27.55 16.8333V11.9622C27.55 11.3978 27.0925 10.9403 26.5281 10.9403Z" fill="#333845"/>
<path d="M30.5135 25.8599V30.6969C30.5135 33.5143 28.2214 35.8064 25.404 35.8064C22.5866 35.8064 20.2945 33.5143 20.2945 30.6969V24.0205H18.2507V30.6969C18.2507 34.6411 21.4594 37.8502 25.404 37.8502C29.3481 37.8502 32.5573 34.6411 32.5573 30.6969V25.8599H30.5135Z" fill="#333845"/>
<path d="M31.5357 19.2517C29.4504 19.2517 27.7544 20.9477 27.7544 23.0327C27.7544 25.1174 29.4504 26.8138 31.5354 26.8138C33.6204 26.8138 35.3164 25.1174 35.3168 23.0327C35.3167 20.9477 33.6204 19.2517 31.5357 19.2517ZM31.5354 24.77C30.5772 24.77 29.7978 23.9907 29.7978 23.0328C29.7978 22.075 30.5772 21.2956 31.5354 21.2956C32.4933 21.2956 33.2726 22.075 33.2726 23.0328C33.2726 23.9907 32.4933 24.77 31.5354 24.77Z" fill="#333845"/>
<path d="M15.3894 9.85022C14.825 9.85022 14.3675 10.3077 14.3675 10.8721V13.0522C14.3675 13.6166 14.825 14.0741 15.3894 14.0741C15.9538 14.0741 16.4113 13.6166 16.4113 13.0522V10.8721C16.4113 10.3077 15.9538 9.85022 15.3894 9.85022Z" fill="#333845"/>
<path d="M23.2921 9.85022C22.7277 9.85022 22.2702 10.3077 22.2702 10.8721V13.0522C22.2702 13.6166 22.7277 14.0741 23.2921 14.0741C23.8565 14.0741 24.314 13.6166 24.314 13.0522V10.8721C24.314 10.3077 23.8565 9.85022 23.2921 9.85022Z" fill="#333845"/>
</g>
<defs>
<clipPath id="clip0_22_10">
<rect width="28" height="28" fill="white" transform="translate(9.25818 9.85022)"/>
</clipPath>
</defs>
</svg>
