<svg width="48" height="48" viewBox="0 0 48 48" fill="none" xmlns="http://www.w3.org/2000/svg">
<rect x="0.241821" y="0.35022" width="47" height="47" rx="10" fill="white"/>
<path d="M30.4236 21.0737H24.2986C23.8203 21.0737 23.4236 20.6771 23.4236 20.1987C23.4236 19.7204 23.8203 19.3237 24.2986 19.3237H30.4236C30.9019 19.3237 31.2986 19.7204 31.2986 20.1987C31.2986 20.6771 30.9136 21.0737 30.4236 21.0737Z" fill="#333845"/>
<path d="M18.173 21.9604C17.9513 21.9604 17.7297 21.8787 17.5547 21.7037L16.6797 20.8287C16.3413 20.4903 16.3413 19.9303 16.6797 19.592C17.018 19.2537 17.578 19.2537 17.9163 19.592L18.173 19.8487L20.1797 17.842C20.518 17.5037 21.078 17.5037 21.4163 17.842C21.7547 18.1803 21.7547 18.7403 21.4163 19.0787L18.7913 21.7037C18.628 21.867 18.4063 21.9604 18.173 21.9604Z" fill="#333845"/>
<path d="M30.4236 29.2404H24.2986C23.8203 29.2404 23.4236 28.8437 23.4236 28.3654C23.4236 27.887 23.8203 27.4904 24.2986 27.4904H30.4236C30.9019 27.4904 31.2986 27.887 31.2986 28.3654C31.2986 28.8437 30.9136 29.2404 30.4236 29.2404Z" fill="#333845"/>
<path d="M18.173 30.1271C17.9513 30.1271 17.7297 30.0454 17.5547 29.8704L16.6797 28.9954C16.3413 28.6571 16.3413 28.0971 16.6797 27.7588C17.018 27.4204 17.578 27.4204 17.9163 27.7588L18.173 28.0154L20.1797 26.0088C20.518 25.6704 21.078 25.6704 21.4163 26.0088C21.7547 26.3471 21.7547 26.9071 21.4163 27.2454L18.7913 29.8704C18.628 30.0338 18.4063 30.1271 18.173 30.1271Z" fill="#333845"/>
<path d="M27.3668 36.3919H20.3668C14.0318 36.3919 11.3251 33.6853 11.3251 27.3503V20.3503C11.3251 14.0153 14.0318 11.3086 20.3668 11.3086H27.3668C33.7018 11.3086 36.4085 14.0153 36.4085 20.3503V27.3503C36.4085 33.6853 33.7018 36.3919 27.3668 36.3919ZM20.3668 13.0586C14.9885 13.0586 13.0751 14.9719 13.0751 20.3503V27.3503C13.0751 32.7286 14.9885 34.6419 20.3668 34.6419H27.3668C32.7451 34.6419 34.6585 32.7286 34.6585 27.3503V20.3503C34.6585 14.9719 32.7451 13.0586 27.3668 13.0586H20.3668Z" fill="#333845"/>
</svg>
