<svg width="48" height="48" viewBox="0 0 48 48" fill="none" xmlns="http://www.w3.org/2000/svg">
<rect x="0.241821" y="0.35022" width="47" height="47" rx="10" fill="white"/>
<g clip-path="url(#clip0_22_11)">
<path d="M24.8668 22.1577C26.6761 22.1577 28.1481 20.6857 28.1481 18.8765C28.1481 17.0672 26.6761 15.5952 24.8668 15.5952C23.0575 15.5952 21.5856 17.0672 21.5856 18.8765C21.5856 20.6857 23.0575 22.1577 24.8668 22.1577ZM24.8668 17.7827C25.4699 17.7827 25.9606 18.2734 25.9606 18.8765C25.9606 19.4796 25.4699 19.9702 24.8668 19.9702C24.2637 19.9702 23.7731 19.4796 23.7731 18.8765C23.7731 18.2734 24.2637 17.7827 24.8668 17.7827Z" fill="#333845"/>
<path d="M34.7106 18.8765C34.7106 13.4486 30.2947 9.03271 24.8668 9.03271C19.439 9.03271 15.0231 13.4486 15.0231 18.8765C15.0231 21.0238 15.7024 23.0645 16.9877 24.778L22.2408 31.7817C22.8579 32.6042 23.8396 33.0952 24.8668 33.0952C25.8941 33.0952 26.8758 32.6042 27.4929 31.7816L32.746 24.778C34.0312 23.0645 34.7106 21.0238 34.7106 18.8765ZM30.996 23.4654L25.743 30.4689C25.5337 30.7478 25.2144 30.9077 24.8668 30.9077C24.5192 30.9077 24.1999 30.7478 23.9907 30.469L18.7376 23.4654C17.7386 22.1335 17.2106 20.5467 17.2106 18.8765C17.2106 14.6548 20.6452 11.2202 24.8668 11.2202C29.0885 11.2202 32.5231 14.6548 32.5231 18.8765C32.5231 20.5467 31.995 22.1335 30.996 23.4654Z" fill="#333845"/>
<path d="M30.3356 35.939C30.3356 35.3349 29.8459 34.8452 29.2418 34.8452H20.4918C19.8877 34.8452 19.3981 35.3349 19.3981 35.939C19.3981 36.543 19.8877 37.0327 20.4918 37.0327H29.2418C29.8459 37.0327 30.3356 36.543 30.3356 35.939Z" fill="#333845"/>
</g>
<defs>
<clipPath id="clip0_22_11">
<rect width="28" height="28" fill="white" transform="translate(10.8668 9.03271)"/>
</clipPath>
</defs>
</svg>
