<svg width="38" height="38" viewBox="0 0 38 38" fill="none" xmlns="http://www.w3.org/2000/svg">
<rect x="0.568298" y="0.0839844" width="36.9571" height="36.9571" rx="5" fill="#333C46"/>
<g clip-path="url(#clip0_51_2536)">
<path d="M16.8856 20.2594L16.6375 23.7494C16.9925 23.7494 17.1462 23.5969 17.3306 23.4138L18.995 21.8231L22.4437 24.3488C23.0762 24.7013 23.5219 24.5156 23.6925 23.7669L25.9562 13.1594L25.9569 13.1587C26.1575 12.2237 25.6187 11.8581 25.0025 12.0875L11.6962 17.1819C10.7881 17.5344 10.8019 18.0406 11.5419 18.27L14.9437 19.3281L22.8456 14.3837C23.2175 14.1375 23.5556 14.2737 23.2775 14.52L16.8856 20.2594Z" fill="#EEEEEE"/>
</g>
<defs>
<clipPath id="clip0_51_2536">
<rect width="15" height="15" fill="white" transform="translate(11 10.7715)"/>
</clipPath>
</defs>
</svg>
