<svg width="38" height="38" viewBox="0 0 38 38" fill="none" xmlns="http://www.w3.org/2000/svg">
<rect x="0.0652466" y="0.0839844" width="36.9571" height="36.9571" rx="5" fill="#333C46"/>
<g clip-path="url(#clip0_51_2540)">
<path d="M26.9498 23.4286C26.9283 23.3823 26.9083 23.3439 26.8897 23.3131C26.5819 22.7588 25.9938 22.0784 25.1256 21.2718L25.1073 21.2533L25.0981 21.2442L25.0888 21.2349H25.0795C24.6854 20.8593 24.4359 20.6068 24.3314 20.4775C24.1403 20.2312 24.0974 19.9818 24.2019 19.7292C24.2757 19.5384 24.553 19.1353 25.0332 18.5194C25.2857 18.193 25.4858 17.9315 25.6335 17.7344C26.6988 16.3181 27.1606 15.4131 27.019 15.019L26.9639 14.9269C26.9269 14.8714 26.8315 14.8207 26.6778 14.7744C26.5236 14.7283 26.3267 14.7206 26.0865 14.7514L23.4265 14.7698C23.3834 14.7545 23.3219 14.7559 23.2417 14.7744C23.1617 14.7929 23.1216 14.8022 23.1216 14.8022L23.0753 14.8253L23.0386 14.8531C23.0078 14.8715 22.9739 14.9038 22.9369 14.95C22.9001 14.9961 22.8694 15.0501 22.8448 15.1116C22.5552 15.8567 22.2259 16.5494 21.8564 17.1897C21.6286 17.5716 21.4193 17.9025 21.2282 18.1827C21.0374 18.4627 20.8773 18.6691 20.7481 18.8014C20.6187 18.9338 20.5019 19.0399 20.397 19.12C20.2923 19.2002 20.2124 19.234 20.157 19.2216C20.1015 19.2093 20.0493 19.197 19.9998 19.1847C19.9137 19.1292 19.8444 19.0538 19.7922 18.9584C19.7397 18.8629 19.7044 18.7428 19.6859 18.5981C19.6675 18.4533 19.6566 18.3288 19.6535 18.2241C19.6507 18.1195 19.652 17.9715 19.6582 17.7807C19.6646 17.5897 19.6675 17.4605 19.6675 17.3928C19.6675 17.1587 19.6721 16.9048 19.6812 16.6308C19.6905 16.3568 19.6981 16.1397 19.7044 15.9797C19.7107 15.8196 19.7136 15.6502 19.7136 15.4717C19.7136 15.2931 19.7027 15.153 19.6812 15.0514C19.66 14.9499 19.6274 14.8514 19.5845 14.7558C19.5413 14.6604 19.4781 14.5866 19.3952 14.5342C19.312 14.4818 19.2087 14.4403 19.0858 14.4094C18.7594 14.3356 18.3438 14.2956 17.8388 14.2894C16.6935 14.2771 15.9577 14.3511 15.6313 14.5112C15.502 14.5788 15.385 14.6712 15.2804 14.7881C15.1695 14.9237 15.1541 14.9976 15.2341 15.0098C15.6036 15.0651 15.8652 15.1975 16.0191 15.4069L16.0746 15.5178C16.1178 15.5978 16.1609 15.7395 16.204 15.9427C16.247 16.1458 16.2748 16.3706 16.2871 16.6168C16.3178 17.0663 16.3178 17.4512 16.2871 17.7713C16.2562 18.0916 16.2271 18.3409 16.1993 18.5195C16.1715 18.698 16.13 18.8427 16.0746 18.9535C16.0191 19.0644 15.9822 19.1321 15.9637 19.1567C15.9453 19.1813 15.9299 19.1968 15.9176 19.2028C15.8376 19.2335 15.7544 19.2491 15.6682 19.2491C15.5819 19.2491 15.4773 19.206 15.3542 19.1197C15.2311 19.0335 15.1033 18.915 14.9709 18.7642C14.8385 18.6132 14.6892 18.4023 14.5229 18.1314C14.3567 17.8606 14.1843 17.5404 14.0057 17.1709L13.858 16.903C13.7656 16.7307 13.6394 16.4797 13.4793 16.1503C13.3191 15.8208 13.1775 15.5021 13.0545 15.1943C13.0053 15.065 12.9313 14.9665 12.8328 14.8988L12.7866 14.871C12.7559 14.8464 12.7065 14.8203 12.6389 14.7925C12.5711 14.7647 12.5004 14.7448 12.4264 14.7325L9.8957 14.7509C9.6371 14.7509 9.46163 14.8095 9.36924 14.9265L9.33226 14.9818C9.31379 15.0126 9.30447 15.0619 9.30447 15.1297C9.30447 15.1974 9.32295 15.2805 9.35992 15.379C9.72936 16.2473 10.1311 17.0846 10.5652 17.8913C10.9993 18.6979 11.3765 19.3476 11.6966 19.8399C12.0167 20.3326 12.3431 20.7975 12.6756 21.2346C13.0081 21.6718 13.2282 21.952 13.3359 22.0751C13.4438 22.1984 13.5284 22.2906 13.59 22.3522L13.821 22.5738C13.9687 22.7216 14.1857 22.8986 14.4721 23.1048C14.7585 23.3112 15.0755 23.5144 15.4234 23.7146C15.7714 23.9146 16.1762 24.0778 16.638 24.204C17.0998 24.3303 17.5493 24.381 17.9865 24.3565H19.0487C19.2641 24.3379 19.4273 24.2702 19.5382 24.1533L19.575 24.107C19.5997 24.0702 19.6228 24.0131 19.6442 23.9363C19.6658 23.8593 19.6765 23.7746 19.6765 23.6823C19.6702 23.4176 19.6904 23.179 19.7364 22.9666C19.7825 22.7543 19.835 22.5942 19.8936 22.4863C19.9523 22.3786 20.0185 22.2877 20.0921 22.214C20.166 22.1402 20.2186 22.0954 20.2494 22.08C20.2801 22.0645 20.3046 22.054 20.323 22.0477C20.4708 21.9985 20.6447 22.0462 20.845 22.191C21.0452 22.3357 21.2329 22.5144 21.4085 22.7267C21.584 22.9392 21.7949 23.1777 22.0411 23.4424C22.2875 23.7072 22.503 23.9041 22.6876 24.0336L22.8723 24.1444C22.9956 24.2184 23.1557 24.2861 23.3528 24.3477C23.5495 24.4092 23.7219 24.4246 23.8699 24.3938L26.2342 24.357C26.4681 24.357 26.6501 24.3182 26.7791 24.2414C26.9085 24.1644 26.9853 24.0796 27.0101 23.9874C27.0348 23.8951 27.0361 23.7903 27.0148 23.6732C26.9929 23.5564 26.9713 23.4747 26.9498 23.4286Z" fill="#EEEEEE"/>
</g>
<defs>
<clipPath id="clip0_51_2540">
<rect width="17.7394" height="17.7394" fill="white" transform="translate(9.30447 10.479)"/>
</clipPath>
</defs>
</svg>
