<svg width="38" height="37" viewBox="0 0 38 37" fill="none" xmlns="http://www.w3.org/2000/svg">
<rect x="0.368286" y="0.0131836" width="36.9571" height="36.9571" rx="5" fill="#333C46"/>
<g clip-path="url(#clip0_51_2545)">
<path d="M19.2184 10.3613H19.2144C14.7314 10.3613 11.0858 14.0079 11.0858 18.4919C11.0858 20.2704 11.659 21.9189 12.6337 23.2574L11.6204 26.2779L14.7456 25.2789C16.0313 26.1305 17.5649 26.6224 19.2184 26.6224C23.7014 26.6224 27.347 22.9749 27.347 18.4919C27.347 14.0089 23.7014 10.3613 19.2184 10.3613Z" fill="#EEEEEE"/>
<path d="M23.9494 21.8427C23.7533 22.3966 22.9748 22.856 22.3538 22.9901C21.929 23.0806 21.374 23.1528 19.5061 22.3783C17.1167 21.3884 15.578 18.9604 15.4581 18.8029C15.3432 18.6454 14.4926 17.5173 14.4926 16.3505C14.4926 15.1838 15.0851 14.6157 15.3239 14.3718C15.5201 14.1715 15.8443 14.0801 16.1553 14.0801C16.2559 14.0801 16.3463 14.0852 16.4276 14.0892C16.6665 14.0994 16.7864 14.1136 16.9439 14.4907C17.1401 14.9633 17.6177 16.13 17.6746 16.2499C17.7326 16.3698 17.7905 16.5325 17.7092 16.69C17.633 16.8526 17.5659 16.9248 17.446 17.063C17.3261 17.2012 17.2122 17.3069 17.0923 17.4553C16.9825 17.5843 16.8585 17.7226 16.9968 17.9614C17.135 18.1952 17.6127 18.9747 18.3159 19.6007C19.2235 20.4087 19.9593 20.6668 20.2226 20.7766C20.4187 20.8579 20.6525 20.8386 20.7958 20.6862C20.9777 20.49 21.2023 20.1648 21.431 19.8446C21.5936 19.615 21.7989 19.5865 22.0143 19.6678C22.2339 19.744 23.3955 20.3182 23.6343 20.4372C23.8732 20.5571 24.0307 20.614 24.0886 20.7146C24.1456 20.8152 24.1456 21.2878 23.9494 21.8427Z" fill="#333C46"/>
</g>
<defs>
<clipPath id="clip0_51_2545">
<rect width="16.2611" height="16.2611" fill="white" transform="translate(11.0858 10.3613)"/>
</clipPath>
</defs>
</svg>
